<?xml version="1.0" encoding="UTF-8"?>
<svg id="Layer_1" data-name="Layer 1" xmlns="http://www.w3.org/2000/svg" viewBox="0 0 374.03 45.88">
  <defs>
    <style>
      .cls-1 {
        fill: #2c3e50;
      }

      .cls-2 {
        isolation: isolate;
      }
    </style>
  </defs>
  <g class="cls-2">
    <g class="cls-2">
      <path class="cls-1" d="M17.45,45.28c-2.01,0-3.92-.26-5.75-.79-1.83-.52-3.51-1.31-5.03-2.36-1.53-1.05-2.85-2.33-3.99-3.84-1.13-1.51-2.03-3.28-2.68-5.3l8.3-3.03c.61,2.18,1.68,3.99,3.2,5.42,1.52,1.43,3.53,2.15,6.01,2.15.92,0,1.8-.11,2.65-.33.85-.22,1.61-.54,2.29-.97.68-.42,1.21-.96,1.6-1.6.39-.64.59-1.39.59-2.24s-.15-1.53-.46-2.18c-.31-.65-.82-1.25-1.54-1.82-.72-.56-1.66-1.11-2.81-1.63-1.16-.52-2.58-1.07-4.28-1.63l-2.88-.97c-1.26-.4-2.54-.95-3.82-1.63-1.29-.69-2.45-1.51-3.5-2.48-1.05-.97-1.91-2.11-2.58-3.42-.68-1.31-1.01-2.79-1.01-4.45s.36-3.28,1.08-4.75c.72-1.47,1.74-2.76,3.07-3.87,1.33-1.11,2.92-1.98,4.77-2.6,1.85-.63,3.91-.94,6.18-.94s4.39.29,6.11.88c1.72.59,3.18,1.33,4.38,2.24,1.2.91,2.17,1.91,2.91,3,.74,1.09,1.28,2.12,1.63,3.09l-7.78,3.03c-.44-1.21-1.23-2.3-2.39-3.27-1.16-.97-2.74-1.45-4.74-1.45s-3.51.41-4.77,1.24c-1.26.83-1.9,1.91-1.9,3.24s.61,2.39,1.83,3.3c1.22.91,3.16,1.79,5.82,2.63l2.94.91c1.87.6,3.58,1.3,5.13,2.09,1.55.79,2.88,1.73,3.99,2.81,1.11,1.09,1.96,2.33,2.55,3.72.59,1.39.88,3,.88,4.81,0,2.26-.49,4.21-1.47,5.84s-2.23,2.98-3.76,4.03c-1.53,1.05-3.25,1.84-5.16,2.36-1.92.52-3.79.79-5.62.79Z"/>
      <path class="cls-1" d="M37.46,44.31V.97h16.47c2.22,0,4.3.33,6.24,1,1.94.67,3.63,1.6,5.07,2.81,1.44,1.21,2.57,2.65,3.4,4.33.83,1.67,1.24,3.52,1.24,5.54s-.41,3.92-1.24,5.6c-.83,1.67-1.96,3.12-3.4,4.33-1.44,1.21-3.13,2.15-5.07,2.81-1.94.67-4.02,1-6.24,1h-7.65v15.92h-8.83ZM54.06,20.64c2.31,0,4.05-.61,5.23-1.82,1.18-1.21,1.77-2.6,1.77-4.18,0-.77-.14-1.51-.42-2.24-.28-.73-.72-1.36-1.31-1.91-.59-.54-1.32-.98-2.19-1.3-.87-.32-1.9-.48-3.07-.48h-7.78v11.92h7.78Z"/>
      <path class="cls-1" d="M81.72,8.72v10.05h18.76v7.75h-18.76v10.05h20.85v7.75h-29.68V.97h29.68v7.75h-20.85Z"/>
      <path class="cls-1" d="M107.41.97h8.83v18.58h.52L133.88.97h10.66v.48l-16.93,17.92,18.7,24.45v.48h-10.79l-13.92-18.46-5.36,5.75v12.71h-8.83V.97Z"/>
      <path class="cls-1" d="M157.81,44.31V8.72h-13.07V.97h34.97v7.75h-13.07v35.59h-8.83Z"/>
      <path class="cls-1" d="M182.71.97h17.06c2.35,0,4.49.34,6.41,1.03,1.92.69,3.56,1.63,4.94,2.85,1.37,1.21,2.43,2.65,3.17,4.33.74,1.67,1.11,3.5,1.11,5.48,0,1.45-.26,2.81-.79,4.09-.52,1.27-1.24,2.42-2.16,3.45-.92,1.03-1.98,1.94-3.2,2.72-1.22.79-2.51,1.4-3.86,1.85l-.07.42,12.55,16.65v.48h-10.13l-12.09-16.28h-4.12v16.28h-8.82V.97ZM199.71,20.52c2,0,3.65-.56,4.94-1.69,1.29-1.13,1.93-2.56,1.93-4.3,0-.77-.14-1.51-.42-2.24-.28-.73-.71-1.37-1.28-1.94-.57-.56-1.27-1.02-2.12-1.36-.85-.34-1.82-.51-2.91-.51h-8.3v12.05h8.17Z"/>
    </g>
  </g>
  <g class="cls-2">
    <g class="cls-2">
      <path class="cls-1" d="M275.71,44.31V8.72h-13.07V.97h34.97v7.75h-13.07v35.59h-8.83Z"/>
      <path class="cls-1" d="M309.45,8.72v10.05h18.76v7.75h-18.76v10.05h20.85v7.75h-29.68V.97h29.68v7.75h-20.85Z"/>
      <path class="cls-1" d="M335.14.97h8.83v18.58h.52L361.61.97h10.66v.48l-16.93,17.92,18.7,24.45v.48h-10.79l-13.92-18.46-5.36,5.75v12.71h-8.83V.97Z"/>
    </g>
  </g>
  <path id="Group_48" data-name="Group 48" class="cls-1" d="M245.4,23.67c0,12.27-1.75,22.21-3.92,22.21s-3.92-9.95-3.92-22.21,1.75-22.21,3.92-22.21,3.92,9.95,3.92,22.21M235.94,23.67c0-11.19-1.24-20.27-2.76-20.27s-2.76,9.07-2.76,20.27,1.24,20.27,2.76,20.27,2.76-9.07,2.76-20.27M228.96,23.67c0-8.91-.95-16.13-2.13-16.13s-2.13,7.22-2.13,16.13.95,16.13,2.13,16.13,2.13-7.22,2.13-16.13M235.94,23.67c0-11.19-1.24-20.27-2.76-20.27s-2.76,9.07-2.76,20.27,1.24,20.27,2.76,20.27,2.76-9.07,2.76-20.27M228.96,23.67c0-8.91-.95-16.13-2.13-16.13s-2.13,7.22-2.13,16.13.95,16.13,2.13,16.13,2.13-7.22,2.13-16.13M223.32,23.69c0-5.29-.61-9.57-1.35-9.57s-1.35,4.28-1.35,9.57.61,9.57,1.35,9.57,1.35-4.28,1.35-9.57M246.89,23.67c0,11.19,1.24,20.27,2.76,20.27s2.76-9.07,2.76-20.27-1.24-20.27-2.76-20.27-2.76,9.07-2.76,20.27M253.86,23.67c0,8.91.96,16.13,2.13,16.13s2.13-7.22,2.13-16.13-.95-16.13-2.13-16.13-2.13,7.22-2.13,16.13M259.51,23.65c0,5.29.61,9.57,1.35,9.57s1.35-4.29,1.35-9.57-.61-9.57-1.35-9.57-1.35,4.28-1.35,9.57"/>
</svg>