<?xml version="1.0" encoding="UTF-8"?> <svg xmlns="http://www.w3.org/2000/svg" id="Layer_1" data-name="Layer 1" viewBox="0 0 375.89 69.19"><defs><style> .cls-1, .cls-2 { fill: #2c3e50; } .cls-2 { font-family: ProductSans-Bold, 'Product Sans'; font-size: 60.53px; font-weight: 700; letter-spacing: -.05em; } </style></defs><text class="cls-2" transform="translate(0 51.94) scale(1.08 1)"><tspan x="0" y="0">SPEKTR</tspan></text><text class="cls-2" transform="translate(262.64 51.94) scale(1.08 1)"><tspan x="0" y="0">TEK</tspan></text><path id="Group_48" data-name="Group 48" class="cls-1" d="M246.97,31.3c0,12.27-1.75,22.21-3.92,22.21s-3.92-9.95-3.92-22.21,1.75-22.21,3.92-22.21,3.92,9.95,3.92,22.21M237.51,31.3c0-11.19-1.24-20.27-2.76-20.27s-2.76,9.07-2.76,20.27,1.24,20.27,2.76,20.27,2.76-9.07,2.76-20.27M230.53,31.3c0-8.91-.95-16.13-2.13-16.13s-2.13,7.22-2.13,16.13.95,16.13,2.13,16.13,2.13-7.22,2.13-16.13M237.51,31.3c0-11.19-1.24-20.27-2.76-20.27s-2.76,9.07-2.76,20.27,1.24,20.27,2.76,20.27,2.76-9.07,2.76-20.27M230.53,31.3c0-8.91-.95-16.13-2.13-16.13s-2.13,7.22-2.13,16.13.95,16.13,2.13,16.13,2.13-7.22,2.13-16.13M224.89,31.32c0-5.29-.61-9.57-1.35-9.57s-1.35,4.28-1.35,9.57.61,9.57,1.35,9.57,1.35-4.28,1.35-9.57M248.46,31.3c0,11.19,1.24,20.27,2.76,20.27s2.76-9.07,2.76-20.27-1.24-20.27-2.76-20.27-2.76,9.07-2.76,20.27M255.43,31.3c0,8.91.96,16.13,2.13,16.13s2.13-7.22,2.13-16.13-.95-16.13-2.13-16.13-2.13,7.22-2.13,16.13M261.08,31.28c0,5.29.61,9.57,1.35,9.57s1.35-4.29,1.35-9.57-.61-9.57-1.35-9.57-1.35,4.28-1.35,9.57"></path></svg> 